PathFileType	4	(X/Y/Z)	Patient4_TMGait_0pt3_03_right_18.trc.trc
DataRate	CameraRate	NumFrames	NumMarkers	Units	OrigDataRate	OrigDataStartFrame	OrigNumFrames
56.910569105691	56.910569105691	6	33	mm	56.910569105691	106	       141
Frame#	Time	Sacral			L.Shoulder			Chest			R.Shoulder			Neck			R.ASIS			L.ASIS			R.Thigh.Superior			R.Thigh.Lateral			R.Thigh.Inferior			R.Patella			L.Thigh.Superior			L.Thigh.Lateral			L.Thigh.Inferior			L.Patella			L.Shank.Superior			L.Shank.Lateral			L.Shank.Inferior			R.Shank.Superior			R.Shank.Lateral			R.Shank.Inferior			R.Heel			R.Midfoot.Superior			R.Midfoot.Lateral			R.Toe			L.Heel			L.Midfoot.Lateral			L.Midfoot.Superior			L.Toe			L.Elbow			L.Wrist			R.Elbow			R.Wrist			
		X1	Y1	Z1	X2	Y2	Z2	X3	Y3	Z3	X4	Y4	Z4	X5	Y5	Z5	X6	Y6	Z6	X7	Y7	Z7	X8	Y8	Z8	X9	Y9	Z9	X10	Y10	Z10	X11	Y11	Z11	X12	Y12	Z12	X13	Y13	Z13	X14	Y14	Z14	X15	Y15	Z15	X16	Y16	Z16	X17	Y17	Z17	X18	Y18	Z18	X19	Y19	Z19	X20	Y20	Z20	X21	Y21	Z21	X22	Y22	Z22	X23	Y23	Z23	X24	Y24	Z24	X25	Y25	Z25	X26	Y26	Z26	X27	Y27	Z27	X28	Y28	Z28	X29	Y29	Z29	X30	Y30	Z30	X31	Y31	Z31	X32	Y32	Z32	X33	Y33	Z33	

106	35.815000000000	693.803473536856	993.600118688769	408.541681881513	885.848844737083	1420.259911423313	229.268794769188	980.212843593103	1350.785036597826	395.124667390869	891.401661931708	1425.282009046918	565.804591271652	863.992272917628	1483.562182556392	387.322868999583	919.875402179771	931.242831043110	534.774380743847	918.018230769585	948.745688327591	260.587567379560	995.631803005317	750.512472609167	507.777120856225	945.624642716165	633.548768916825	581.260811203648	1033.592390307547	587.567574923112	503.191774980898	1042.501720140224	474.311560448849	529.633716020212	974.969967561224	739.456707988067	307.061723625152	898.741318011248	614.904725463114	250.220321542590	980.276802179206	544.852147230483	326.174470217415	981.979987915546	470.875491285045	339.089755972934	941.205676608276	397.301528477180	331.423907414897	842.354990723592	296.630466966385	270.114677278957	859.126374761215	182.267949092119	348.557363128352	958.785498200920	406.931843222408	540.668660144032	831.363656970901	383.050277053837	598.465798087037	809.306635965278	271.803277495045	557.611745556618	605.557461342144	235.003431635494	522.829556447449	760.432537094705	153.558346307323	579.974416166275	650.408432559668	174.173670991298	604.606485114445	804.167004348864	35.267451120720	619.106442761541	704.734672242620	39.780701699503	373.170116701753	787.240572379589	35.797007199662	301.780841350629	868.516953742545	94.823097042257	339.069225151344	998.357642121351	39.571134155018	322.968070931691	891.398105649571	1074.517623309650	93.084680100346	1052.640581004403	867.839339732266	89.597256321033	862.641259794829	1074.190834875595	680.160991390909	938.173600543861	826.228605197365	705.678479279721	
107	35.832571428571	693.036296930316	993.975988724990	406.828919746226	887.641749847711	1420.786529905387	229.447016165286	979.870979599704	1351.132645699662	396.355276755381	888.813427113890	1425.282066599430	566.088590653240	863.794936475274	1483.894063901747	387.481111161022	918.051371617709	932.063367964761	535.062286717599	918.921197943932	949.068084456171	260.638951754960	996.391478710556	753.823573748157	507.094819928747	948.858548683921	636.028107742984	580.587694687158	1037.394768111755	591.647321661929	502.185587496581	1048.786110258528	478.728954814401	528.586104813785	973.685447352123	738.542730479917	306.956675675580	896.296820891979	614.700247339605	249.947736351314	976.869250452336	543.951593837837	326.132178456757	977.956675989078	470.232203418535	339.269473336291	936.951316498761	396.832605232095	331.479511240047	838.003055942409	296.419280531764	269.943536525429	854.167920600177	182.065771466998	348.569416781333	966.685203791534	409.661917367191	539.848003472390	839.789653497556	382.335880752328	596.944692589430	821.471235093741	270.334022956531	556.411304030510	618.970516063914	224.715461125765	520.709602471668	777.208732764128	152.411010484246	579.026068664997	666.614370642393	167.379082974848	603.271455958651	826.650903342032	36.792338100597	619.382062897912	699.394467407097	39.771678093454	373.091355370393	781.941647758557	35.772314071240	301.712128349564	863.235195638316	94.781929541844	339.023540923991	993.061192282982	39.535656796356	322.931837804914	897.621818612999	1075.482234878341	92.567761420335	1067.313966816998	875.676926030473	89.170894964039	847.020516073249	1075.685858122097	679.933768312623	908.552923481970	824.187587635190	707.734180958591	
108	35.850142857143	692.370589839641	995.017741584751	405.307953206984	889.742668700566	1421.798872314251	229.884137428966	979.698981210348	1351.984790338805	397.889454953110	886.332347403772	1425.943033100851	566.517141512811	863.768534028855	1484.742850403539	387.822427248041	916.136394809828	933.374589461940	535.666484415001	919.892801676857	949.849808447757	261.049638368028	996.472459745738	757.258865189591	506.844870612600	950.950115451129	638.779967354616	580.306620312334	1039.787017728215	595.700946805919	501.573990997844	1053.615255956604	483.523277115481	527.948586501644	971.859039439719	737.834825300683	307.110553617053	893.007822499056	614.968015205966	249.708238329114	972.356480063159	543.300322647123	326.080005036342	972.676531412096	469.949886072896	339.368718838079	931.687740374911	396.801857026469	331.420144890905	832.917388001620	296.393474805866	269.687189712622	848.847967371462	182.093377996909	348.514968176787	973.846020222147	412.475883953991	539.477479613669	848.267232844004	380.370155838813	596.273421302546	834.719426924217	267.737000506070	555.835072230548	634.380876431988	211.173520576939	519.887055325466	796.383853471137	149.886488842205	578.558755249067	685.556045252907	157.853009316448	602.860579986993	852.824451138606	38.254111924552	619.555318290307	694.034758725047	39.753435446188	373.008064745172	776.622097007456	35.743659502132	301.640324093907	857.925901916045	94.765939974032	338.945832660019	987.746220621472	39.522707140374	322.902967341078	903.457583133082	1076.929866958414	92.524961630242	1081.607029116527	884.636634147588	89.308025205139	831.511299078375	1078.324340907996	679.625136083824	880.210325981278	824.321861973186	708.885068939118	
109	35.867714285714	691.799166934985	996.662481434842	403.969591345899	892.140362110821	1423.230729750136	230.577245559116	979.697904473432	1353.273245003406	399.713074013293	883.993191039241	1427.206465494361	567.082975485186	863.906626998699	1486.043765224624	388.337111632978	914.150041445171	935.118464971157	536.584266017096	920.864892460045	950.998958633067	261.833110839927	995.889720745129	760.691517589412	507.025148828456	951.869082140740	641.678342192512	580.436254113504	1040.733405644061	599.566123674812	501.374709359303	1056.925426566053	488.554886666027	527.735386100457	969.497101533246	737.311004947564	307.547486216116	888.933870524051	615.673857726771	249.506170793948	966.799208798052	542.886360837077	326.032748259479	966.199620460043	470.008666765689	339.392892606281	925.474101211378	397.186104674083	331.249362331350	827.141428348088	296.543922000591	269.349298123932	843.186068520756	182.336307622130	348.397605168691	980.212233996103	415.305656457360	539.572314052221	856.850226840944	377.237029226400	596.503371531696	849.004675833960	264.212191793857	555.930426832563	651.979535838574	195.007481131371	520.400760540855	817.747841949212	146.236167524586	578.598679396655	707.201665019041	146.156937043730	603.400810927893	882.097295369340	39.781236576881	619.670247853394	688.658928697256	39.726664410604	372.919941303888	771.282212968813	35.710404129407	301.565445637753	852.588911422596	94.772109300321	338.840430682158	982.412837450806	39.531852839435	322.882647003751	908.958142535157	1078.799341140870	92.894954842446	1095.465065543787	894.649679995777	89.990846275430	816.323721420060	1082.009455010890	679.197307112033	853.424240841682	826.306869112986	709.208190595194	
110	35.885285714286	691.313579565269	998.793582617294	402.814876242740	894.800993231395	1424.973685408751	231.522062694492	979.860420491390	1354.887005308598	401.804052877885	881.831963039213	1428.960231377791	567.784597862556	864.195887849267	1487.689457596208	389.019057365380	912.118427358689	937.191605791014	537.808036908693	921.764279695460	952.387036719176	262.992573103592	994.670494869401	763.964550706715	507.632018471229	951.608999516713	644.570655692549	580.990703667789	1040.243260904426	603.076308003949	501.610745051313	1058.693382422775	493.663117687014	527.949341440313	966.638155564028	736.929043452494	308.283475594606	884.184680621715	616.748581220960	249.349708598929	960.323799478181	542.676297056259	326.007277786994	958.662345837741	470.362297352857	339.355539310209	918.434140329660	397.931551995235	330.980254483843	820.764035474490	296.847653220469	268.941735615393	837.225532716987	182.764284579657	348.226734959032	985.737996798314	418.081431778286	540.128373028306	865.560607976495	373.095450992209	597.625276941063	864.198298985274	260.027497205378	556.695147902087	671.809483390515	176.985822461413	522.181316638330	840.962963950997	141.813120232047	579.124499405698	731.362376385802	132.987545316331	604.839541972911	913.732275827774	41.580790375461	619.762968548931	683.271413832441	39.692835426383	372.827415346906	765.923914626423	35.672328101267	301.488406739602	847.226764980606	94.795544292408	338.714550948105	977.062323637341	39.561174056415	322.871997967995	914.188464317066	1080.995691656308	93.612444942990	1108.846505368421	905.601590007476	91.190369573856	801.666687976303	1086.570446622203	678.627352689097	828.419843712355	829.765334648635	708.800572038452	
111	35.902857142857	690.907559224771	1001.250098161963	401.855166348533	897.668464683548	1426.887665664140	232.713498033499	980.171087711962	1356.683953843948	404.134395466901	879.882392839044	1431.049639726489	568.627852780171	864.615880105699	1489.540441661603	389.867203854707	910.074003486995	939.451599893666	539.323287021821	922.535981565206	953.869426337675	264.514882653523	992.857336979528	766.902788556001	508.665306216126	950.192538781943	647.288786522552	581.980879375339	1038.378768320018	606.073641636937	502.312166295079	1058.941683146557	498.676097636580	528.586495444303	963.353484865029	736.631448909212	309.322015653629	878.911510779217	618.095463408596	249.247098060757	953.111842979068	542.618687448127	326.018388027563	950.266256559160	470.942514026622	339.273492766510	910.746028757381	398.958486054935	330.631336916090	813.910686576345	297.269101062893	268.482012943310	831.029191058583	183.333275606268	348.015586651606	990.391406004035	420.731802262625	541.125129905399	874.378418833496	368.158075154814	599.574475532009	880.087618617824	255.484695697506	558.080090537725	693.731966489543	157.952575635093	525.069797989525	865.578059924865	137.023183565603	580.074745704790	757.681143429976	119.098429040021	607.052241791546	946.890747585791	43.878172557649	619.839720873241	677.877124347618	39.653285411115	372.731609776041	760.550231059154	35.629087923226	301.410678930834	841.843623904249	94.829955817520	338.577198346372	971.696667299643	39.607587272583	322.871947996362	919.220500116391	1083.398882306722	94.612700249797	1121.722316530132	917.339663746616	92.867593853120	787.736737924082	1091.776314687555	677.912793881763	805.371924036774	834.288185069758	707.773243445851	
